<svg height="512" viewBox="0 0 60 60" width="512" xmlns="http://www.w3.org/2000/svg"><g id="Page-1" fill="none" fill-rule="evenodd"><g id="073---IT-Service" transform="translate(-1)"><path id="Path" d="m60 3.18v40.82h-58v-40.82c-.04521019-1.152631.84774936-2.12595691 2-2.18h54c1.1522506.05404309 2.0452102 1.027369 2 2.18z" fill="#02a9f4"/><path id="Path" d="m58 1h-3c1.1522506.05404309 2.0452102 1.027369 2 2.18v40.82h3v-40.82c.0452102-1.152631-.8477494-2.12595691-2-2.18z" fill="#0377bc"/><path id="Path" d="m60 44v3.82c.0452102 1.152631-.8477494 2.1259569-2 2.18h-54c-1.15225064-.0540431-2.04521019-1.027369-2-2.18v-3.82z" fill="#E6E6E6"/><path id="Path" d="m57 44v3.82c.0452102 1.152631-.8477494 2.1259569-2 2.18h3c1.1522506-.0540431 2.0452102-1.027369 2-2.18v-3.82z" fill="#545c60"/><path id="Path" d="m39 50 3 5h-11-11l3-5z" fill="#607d8b"/><path id="Path" d="m39 50h-3l3 5h3z" fill="#37474f"/><rect id="Rectangle" fill="#E6E6E6" height="4" rx="2" width="34" x="14" y="55"/><path id="Path" d="m46 55h-3c1.1045695 0 2 .8954305 2 2s-.8954305 2-2 2h3c1.1045695 0 2-.8954305 2-2s-.8954305-2-2-2z" fill="#545c60"/><path id="Path" d="m34.31 23.94 10.17 10.17c.3755541.3751365.5865733.8841815.5865733 1.415s-.2110192 1.0398635-.5865733 1.415l-1.42 1.41c-.3736892.3744562-.8809811.5848881-1.41.5848881s-1.0363108-.2104319-1.41-.5848881l-10.17-10.17z" fill="#91562d"/><path id="Rectangle" d="m21.922 14.519h5.996v8.542h-5.996z" fill="#91562d" transform="matrix(.707 -.707 .707 .707 -5.987 23.124)"/><path id="Path" d="m27.557 10.117-9.9 9.9c-.3751365.3755541-.8841815.5865733-1.415.5865733s-1.0398635-.2110192-1.415-.5865733l-4.24-4.25c-.3755541-.3751365-.5865733-.8841815-.5865733-1.415s.2110192-1.0398635.5865733-1.415l7.35-7.35c.4961087-.49841888 1.2175329-.69965827 1.9-.53l6.79 1.7c.7014415.17340214 1.2548136.71166699 1.44756 1.40804142.1927465.69637442-.0051059 1.44256746-.51756 1.95195858z" fill="#E6E6E6"/><path id="Path" d="m46.28 16.019c-1.4236193.9325357-3.1777311 1.2126988-4.821.77l-15.665 15.666c.5188095 1.9428783.0286048 4.0164537-1.3052767 5.5213456-1.3338815 1.504892-3.3336141 2.2404767-5.3247233 1.9586544-.3746387-.0463632-.6906822-.300941-.815766-.6571119-.1250839-.356171-.0376178-.7524575.225766-1.0228881l.72-.72c.3853539-.4029192.5893974-.9457652.564852-1.5027562-.0245453-.556991-.2755492-1.0797841-.694852-1.4472438-.8420592-.6520874-2.0399548-.5659078-2.78.2l-.64.64c-.256652.263572-.6390969.3615843-.9908831.2539419-.3517863-.1076423-.6139007-.4028821-.6791169-.7649419-.312588-1.9986068.4076527-4.0196125 1.9137724-5.370073 1.5061198-1.3504605 3.5934206-1.8468334 5.5462276-1.318927l15.685-15.686c-.5310946-1.957904-.0331795-4.05154662 1.3224689-5.56074081 1.3556483-1.50919419 3.3840768-2.22803842 5.3875311-1.90925919.3565804.07718225.6428286.34243345.7468999.69211312.1040714.34967966.0094474.72828567-.2468999.98788688l-.64.63c-.7658186.73604687-.8521382 1.93157357-.2 2.77.3620185.4268715.8849949.6843075 1.4440765.7108492s1.1040939-.180193 1.5049235-.5708492l.72-.72c.2678968-.26604459.6637913-.35655155 1.0206772-.23334094s.6126203.43868471.6593228.81334094c.3364315 2.3078513-.7016373 4.6003509-2.658 5.87z" fill="#E6E6E6"/><g fill="#000" fill-rule="nonzero"><path id="Shape" d="m58 0h-54c-1.70524172.05441563-3.04599736 1.47651044-3 3.182v44.636c-.04599736 1.7054896 1.29475828 3.1275844 3 3.182h17.234l-1.8 3h-3.434c-1.6568542 0-3 1.3431458-3 3s1.3431458 3 3 3h30c1.6568542 0 3-1.3431458 3-3s-1.3431458-3-3-3h-3.434l-1.8-3h17.234c1.7052417-.0544156 3.0459974-1.4765104 3-3.182v-44.636c.0459974-1.70548956-1.2947583-3.12758437-3-3.182zm-54 2h54c.5966179.06161524 1.038076.58341866 1 1.182v39.818h-56v-39.818c-.03807599-.59858134.40338206-1.12038476 1-1.182zm43 55c0 .5522847-.4477153 1-1 1h-30c-.5522847 0-1-.4477153-1-1s.4477153-1 1-1h30c.5522847 0 1 .4477153 1 1zm-6.766-3h-18.468l1.8-3h14.868zm17.766-5h-54c-.59661794-.0616152-1.03807599-.5834187-1-1.182v-2.818h56v2.818c.038076.5985813-.4033821 1.1203848-1 1.182z"/><path id="Shape" d="m14.12 20.724c.5626643.563025 1.3260174.8793595 2.122.8793595s1.5593357-.3163345 2.122-.8793595l1.418-1.418 4.628 4.628-3.2 3.2c-2.2193075-.4015464-4.4957548.2954135-6.1098624 1.870603s-2.3664094 3.8339519-2.0191376 6.062397c.1111579.7245334.6215848 1.3243527 1.319 1.55.7194094.2396407 1.5124717.0518306 2.048-.485l.634-.636c.3720431-.3958989.9773917-.4608943 1.425-.153.2160492.190752.3428734.4628806.35.751.0160247.2720256-.0834679.5381866-.274.733l-.72.721c-.5295283.525717-.7148146 1.3064002-.478 2.014.2393235.7271712.8709365 1.2552601 1.629 1.362.3410138.0504781.6852704.0758795 1.03.076 2.0621104-.0149561 4.0127102-.9384081 5.3312826-2.5239332 1.3185724-1.585525 1.870945-3.6717867 1.5097174-5.7020668l3.181-3.18 9.463 9.463c.5611362.5613147 1.3223073.8766731 2.116.8766731s1.5548638-.3153584 2.116-.8766731l1.427-1.417c1.1602326-1.1760199 1.158003-3.0667197-.005-4.24l-9.46-9.46 6.055-6.055c2.2075828.3911548 4.4689544-.2987723 6.0822118-1.8556359 1.6132574-1.5568637 2.3831783-3.7922658 2.0707882-6.0123641-.096786-.75206608-.6125605-1.38377019-1.33007-1.62902722-.7175095-.24525702-1.5120435-.06143877-2.04893.47402722l-.719.72c-.1996724.18793763-.4659303.28868385-.74.28-.2866294-.01047918-.5556015-.14115386-.741-.36-.3121527-.43897086-.2523785-1.04098259.14-1.41l.645-.636c.5325054-.53212448.7210994-1.3181906.488-2.034-.2209963-.70214062-.8178307-1.22050519-1.544-1.341-2.2337997-.3537622-4.5005151.3970294-6.081452 2.01432565-1.5809369 1.61729626-2.2800025 3.90049453-1.875548 6.12567435l-6.06 6.06-4.628-4.629 2.828-2.829c.7665321-.7641164 1.0620463-1.88188292.7733066-2.92499115-.2887396-1.04310822-1.1169619-1.84981666-2.1673066-2.11100885l-6.791-1.7c-1.0229777-.25073884-2.1026815.04978945-2.849.793l-7.355 7.354c-1.15987588 1.1749759-1.15987588 3.0640241 0 4.239zm29.653 14.093c.3859066.3919533.3859066 1.0210467 0 1.413l-1.422 1.413c-.3927873.3771585-1.0132127.3771585-1.406 0l-9.463-9.464 2.825-2.825zm-5.847-21.571c.2534316-.2530149.3522207-.6222342.259-.968-.4374917-1.6236127-.0285323-3.35838794 1.0880975-4.61562897 1.1166299-1.25724102 2.7909964-1.86813358 4.4549025-1.62537103l-.65.641c-1.1281303 1.1037639-1.2374573 2.88238074-.253 4.116.5430375.6407125 1.328362 1.0263453 2.1673866 1.0642931.8390245.0379477 1.6559546-.2752177 2.2546134-.8642931l.7-.706c.2816994 1.9268998-.5856005 3.8412103-2.22 4.9-1.183793.7718407-2.6399779 1.0038122-4.005.638-.3465129-.0946348-.7171615.0038485-.971.258l-15.664 15.663c-.2520024.25219-.3506809.6194718-.259.964.3735997 1.3676643.1408141 2.8299509-.639 4.014-1.0617733 1.6361121-2.9755556 2.5085659-4.907 2.237l.718-.721c.5818166-.5887823.8926248-1.3929715.858-2.22-.0299592-.847382-.4106334-1.6442263-1.051-2.2-.5283555-.4381913-1.194603-.6755043-1.881-.67-.8425678.0028446-1.6504115.3360353-2.25.928l-.615.685c-.2610926-1.6652875.3389838-3.3494941 1.5942504-4.4745087 1.2552666-1.1250145 2.9948948-1.5377342 4.6217496-1.0964913.3442183.0912972.7110167-.0073537.963-.259zm-9.276 6.454-2.826 2.82-4.624-4.628 2.825-2.826zm-17.356-6.056 7.35-7.35c.1865844-.19036425.4414487-.29835763.708-.3.0815206.00021248.1627374.00994507.242.029l6.789 1.7c.3518811.08575124.6298937.35506353.7267859.70404131s-.002482.72306989-.2597859.97795869l-9.9 9.9c-.3962943.3761298-1.0177057.3761298-1.414 0l-4.242-4.245c-.1880834-.1876085-.2937876-.4423455-.2937876-.708s.1057042-.5203915.2937876-.708z"/></g></g></g></svg>