<svg width="36" height="35" viewBox="0 0 36 35" fill="none" xmlns="http://www.w3.org/2000/svg">
<g clip-path="url(#clip0)">
<path d="M11.9575 22.2304H15.1575V33.3782H19.9575V22.2304H24.7575V17.4183H19.9575V14.2103C19.9575 13.3281 20.6775 12.6063 21.5575 12.6063H24.7575V7.79428H20.7575C17.6695 7.79428 15.1575 10.3126 15.1575 13.4083V17.4183H11.9575V22.2304Z" fill="white"/>
<path fill-rule="evenodd" clip-rule="evenodd" d="M18.3575 33.2536C27.0579 33.2536 34.111 26.2005 34.111 17.5C34.111 8.79955 27.0579 1.74644 18.3575 1.74644C9.65703 1.74644 2.60392 8.79955 2.60392 17.5C2.60392 26.2005 9.65703 33.2536 18.3575 33.2536ZM18.3575 34.7536C27.8864 34.7536 35.611 27.0289 35.611 17.5C35.611 7.97112 27.8864 0.246437 18.3575 0.246437C8.8286 0.246437 1.10392 7.97112 1.10392 17.5C1.10392 27.0289 8.8286 34.7536 18.3575 34.7536Z" fill="white"/>
</g>
<defs>
<clipPath id="clip0">
<rect width="35" height="35" fill="white" transform="translate(0.857483)"/>
</clipPath>
</defs>
</svg>
