<svg width="34" height="33" viewBox="0 0 34 33" fill="none" xmlns="http://www.w3.org/2000/svg">
<path fill-rule="evenodd" clip-rule="evenodd" d="M10.7759 29.1711L10.8463 29.1462C11.3251 28.9773 11.9911 28.8402 12.7076 28.9667L12.8227 28.987L12.9347 29.0206C14.1618 29.3887 15.5649 29.5762 17 29.5762C24.9903 29.5762 31 23.7938 31 16.0557C31 8.31749 24.9903 2.53508 17 2.53508C9.00966 2.53508 3 8.31749 3 16.0557C3 20.1364 4.65574 23.6291 7.32874 26.0119C8.06201 26.6311 8.41675 27.5312 8.45394 28.3493L8.45492 28.371L8.50535 30.1688L10.7759 29.1711ZM6.536 31.2882C6.6 32.2003 7.512 32.7923 8.344 32.4243L11.512 31.0322C11.784 30.9362 12.088 30.8882 12.36 30.9362C13.8 31.3682 15.4 31.5762 17 31.5762C26.024 31.5762 33 24.968 33 16.0557C33 7.14333 26.024 0.53508 17 0.53508C7.976 0.53508 1 7.14333 1 16.0557C1 20.7118 2.904 24.76 6.024 27.5281C6.28 27.7361 6.44 28.0881 6.456 28.4401L6.536 31.2882ZM6.6797 26.7727C6.67799 26.7713 6.67628 26.7699 6.67456 26.7684L6.6797 26.7727Z" fill="white"/>
<path d="M21.912 19.9432L26.6 12.4709C27.064 11.7349 26.184 10.9349 25.512 11.4629L20.456 15.303C20.2898 15.4277 20.0877 15.495 19.88 15.495C19.6723 15.495 19.4702 15.4277 19.304 15.303L15.56 12.4869C14.44 11.6549 12.84 11.9589 12.088 13.127L7.4 20.5992C6.936 21.3353 7.816 22.1353 8.488 21.6073L13.544 17.7671C13.7102 17.6425 13.9123 17.5751 14.12 17.5751C14.3277 17.5751 14.5298 17.6425 14.696 17.7671L18.44 20.5352C19.56 21.4153 21.16 21.1113 21.912 19.9432Z" fill="white"/>
</svg>
