<svg width="428" height="66" viewBox="0 0 428 66" fill="none" xmlns="http://www.w3.org/2000/svg">
<mask id="mask0" mask-type="alpha" maskUnits="userSpaceOnUse" x="4" y="0" width="421" height="63">
<path d="M4.48025 3.728H35.2002V9.68H22.7842V50H16.5762V9.68H4.48025V3.728ZM48.2857 51.024C45.8537 51.024 43.8484 50.2987 42.2697 48.848C40.6911 47.3547 39.8804 45.4347 39.8377 43.088V23.504H45.7897V40.976C45.8751 42.4267 46.3017 43.6 47.0697 44.496C47.8377 45.392 49.0324 45.8613 50.6537 45.904C52.1044 45.904 53.4271 45.4773 54.6217 44.624C55.8164 43.728 56.7551 42.5333 57.4377 41.04C58.1631 39.504 58.5257 37.776 58.5257 35.856V23.504H64.4777V50H59.1017L58.6537 45.008C57.8004 46.7573 56.4351 48.208 54.5577 49.36C52.7231 50.4693 50.6324 51.024 48.2857 51.024ZM102.576 50.512C100.656 50.512 98.7997 50.192 97.0077 49.552C95.2584 48.8693 93.8077 47.8667 92.6557 46.544L95.2157 43.088C96.2824 44.1547 97.4131 44.9653 98.6077 45.52C99.8024 46.032 100.954 46.288 102.064 46.288C103.344 46.288 104.453 46.032 105.392 45.52C106.373 45.008 106.864 44.1333 106.864 42.896C106.864 41.9573 106.544 41.2107 105.904 40.656C105.306 40.1013 104.517 39.6747 103.536 39.376C102.597 39.0347 101.616 38.6933 100.592 38.352C96.0691 36.9013 93.8077 34.32 93.8077 30.608C93.8077 29.2427 94.1491 27.9413 94.8317 26.704C95.5571 25.4667 96.6024 24.464 97.9677 23.696C99.3757 22.928 101.104 22.544 103.152 22.544C104.986 22.544 106.629 22.7787 108.08 23.248C109.53 23.7173 110.896 24.464 112.176 25.488L109.808 29.136C109.04 28.368 108.122 27.792 107.056 27.408C106.032 26.9813 105.093 26.7467 104.24 26.704C103.088 26.704 102.064 26.9813 101.168 27.536C100.314 28.0907 99.8877 28.8587 99.8877 29.84C99.8451 30.736 100.122 31.4613 100.72 32.016C101.317 32.528 102.085 32.9547 103.024 33.296C104.005 33.6373 104.986 33.9573 105.968 34.256C107.888 34.896 109.509 35.7707 110.832 36.88C112.197 37.9893 112.88 39.6107 112.88 41.744C112.88 44.1333 112.026 46.2027 110.32 47.952C108.613 49.6587 106.032 50.512 102.576 50.512ZM121.213 23.504H127.165V50H121.213V23.504ZM120.765 13.968C120.765 12.9867 121.127 12.1973 121.853 11.6C122.621 10.96 123.453 10.64 124.349 10.64C125.245 10.64 126.055 10.96 126.781 11.6C127.506 12.1973 127.869 12.9867 127.869 13.968C127.869 14.9493 127.506 15.76 126.781 16.4C126.055 16.9973 125.245 17.296 124.349 17.296C123.453 17.296 122.621 16.9973 121.853 16.4C121.127 15.76 120.765 14.9493 120.765 13.968ZM140.085 11.856H146.101V23.568H153.333V28.304H146.101V50H140.085V28.304H135.221V23.568H140.085V11.856ZM160.588 23.504H166.54V50H160.588V23.504ZM160.14 13.968C160.14 12.9867 160.502 12.1973 161.228 11.6C161.996 10.96 162.828 10.64 163.724 10.64C164.62 10.64 165.43 10.96 166.156 11.6C166.881 12.1973 167.244 12.9867 167.244 13.968C167.244 14.9493 166.881 15.76 166.156 16.4C165.43 16.9973 164.62 17.296 163.724 17.296C162.828 17.296 161.996 16.9973 161.228 16.4C160.502 15.76 160.14 14.9493 160.14 13.968ZM174.596 36.496C174.596 33.8507 175.215 31.4613 176.452 29.328C177.732 27.1947 179.482 25.5093 181.7 24.272C183.919 23.0347 186.458 22.416 189.316 22.416C192.175 22.416 194.692 23.0347 196.868 24.272C199.044 25.5093 200.73 27.1947 201.924 29.328C203.162 31.4613 203.78 33.8507 203.78 36.496C203.78 39.1413 203.162 41.5307 201.924 43.664C200.73 45.7973 199.023 47.504 196.804 48.784C194.628 50.0213 192.09 50.64 189.188 50.64C186.372 50.64 183.855 50.064 181.636 48.912C179.46 47.76 177.732 46.1173 176.452 43.984C175.215 41.8507 174.596 39.3547 174.596 36.496ZM180.612 36.56C180.612 38.2667 180.975 39.824 181.7 41.232C182.468 42.5973 183.492 43.6853 184.772 44.496C186.052 45.3067 187.503 45.712 189.124 45.712C190.788 45.712 192.26 45.3067 193.54 44.496C194.82 43.6853 195.823 42.5973 196.548 41.232C197.316 39.824 197.7 38.2667 197.7 36.56C197.7 34.8533 197.316 33.3173 196.548 31.952C195.823 30.544 194.82 29.4347 193.54 28.624C192.26 27.7707 190.788 27.344 189.124 27.344C187.503 27.344 186.031 27.7707 184.708 28.624C183.428 29.4773 182.426 30.608 181.7 32.016C180.975 33.3813 180.612 34.896 180.612 36.56ZM249.049 23.504L256.217 40.016L262.937 23.504H268.825L256.601 51.6L248.089 33.424L240.345 51.6L228.057 23.504H233.945L240.985 39.568L245.977 28.048L243.865 23.504H249.049ZM286.876 50.64C283.889 50.64 281.286 50.0427 279.068 48.848C276.892 47.6107 275.206 45.9253 274.012 43.792C272.86 41.6587 272.284 39.248 272.284 36.56C272.284 33.9573 272.924 31.5893 274.204 29.456C275.526 27.28 277.297 25.5733 279.516 24.336C281.777 23.056 284.273 22.416 287.004 22.416C290.502 22.416 293.404 23.44 295.708 25.488C298.012 27.536 299.59 30.352 300.444 33.936L279.452 41.296C280.177 42.6187 281.201 43.664 282.524 44.432C283.846 45.1573 285.34 45.52 287.004 45.52C288.198 45.52 289.329 45.3067 290.396 44.88C291.462 44.4533 292.486 43.8987 293.468 43.216L296.22 47.632C294.854 48.528 293.34 49.2533 291.676 49.808C290.054 50.3627 288.454 50.64 286.876 50.64ZM278.172 36.24C278.129 36.752 278.15 37.2427 278.236 37.712L293.66 32.016C293.062 30.736 292.188 29.6053 291.036 28.624C289.926 27.6427 288.433 27.152 286.556 27.152C284.124 27.152 282.118 28.0053 280.54 29.712C278.961 31.4187 278.172 33.5947 278.172 36.24ZM324.03 50.64C321.768 50.64 319.763 50.2133 318.014 49.36C316.307 48.464 314.899 47.3333 313.79 45.968V50H307.838V0.399998H313.79V27.088C314.856 25.68 316.35 24.5493 318.27 23.696C320.19 22.8427 322.366 22.416 324.798 22.416C327.144 22.416 329.299 22.992 331.262 24.144C333.224 25.2533 334.803 26.8533 335.998 28.944C337.192 31.0347 337.79 33.488 337.79 36.304C337.79 39.3333 337.15 41.9147 335.87 44.048C334.59 46.1813 332.904 47.824 330.814 48.976C328.723 50.0853 326.462 50.64 324.03 50.64ZM322.75 45.52C325.352 45.52 327.486 44.6667 329.15 42.96C330.856 41.2107 331.71 38.992 331.71 36.304C331.71 34.5973 331.304 33.0613 330.494 31.696C329.726 30.288 328.659 29.1787 327.294 28.368C325.971 27.5573 324.456 27.152 322.75 27.152C320.531 27.152 318.611 27.7493 316.99 28.944C315.368 30.1387 314.302 31.6747 313.79 33.552V38.992C314.302 40.8693 315.347 42.4267 316.926 43.664C318.504 44.9013 320.446 45.52 322.75 45.52ZM368.265 62.736L374.345 49.168L362.057 23.504H368.777L377.289 42.384L385.737 23.504H391.241L374.153 62.736H368.265ZM407.91 50.64C405.392 50.64 403.11 50.1067 401.062 49.04C399.056 47.9733 397.456 46.416 396.262 44.368C395.11 42.2773 394.534 39.7387 394.534 36.752C394.534 33.7653 395.131 31.2053 396.326 29.072C397.563 26.9387 399.206 25.296 401.254 24.144C403.344 22.992 405.627 22.416 408.102 22.416C410.491 22.416 412.518 22.928 414.182 23.952C415.846 24.976 417.147 26.2133 418.086 27.664L418.534 23.504H424.038V50H418.086V45.648C417.574 46.3307 416.827 47.056 415.846 47.824C414.907 48.592 413.755 49.2533 412.39 49.808C411.067 50.3627 409.574 50.64 407.91 50.64ZM409.51 45.712C411.686 45.712 413.542 45.1147 415.078 43.92C416.614 42.6827 417.616 41.0187 418.086 38.928V33.68C417.574 31.8453 416.507 30.3307 414.886 29.136C413.264 27.9413 411.408 27.344 409.318 27.344C407.696 27.344 406.224 27.728 404.902 28.496C403.579 29.264 402.512 30.3307 401.702 31.696C400.934 33.0613 400.55 34.64 400.55 36.432C400.55 38.1813 400.955 39.76 401.766 41.168C402.576 42.5333 403.664 43.6427 405.03 44.496C406.395 45.3067 407.888 45.712 409.51 45.712Z" fill="#C4C4C4"/>
</mask>
<g mask="url(#mask0)">
<path d="M-22.2432 -21H448.243V86.2432L-22.2432 -21Z" fill="#151FFF"/>
<path d="M-22.2432 -21L448.243 86.2432H-22.2432V-21Z" fill="#66BFFF"/>
</g>
</svg>
