<svg width="33" height="32" viewBox="0 0 33 32" fill="none" xmlns="http://www.w3.org/2000/svg">
<g clip-path="url(#clip0)">
<g filter="url(#filter0_f)">
<path d="M1.62354 31.2529L3.75957 23.4591C2.4462 21.1785 1.74618 18.5879 1.75341 15.9395C1.75341 7.64041 8.50802 0.893013 16.8071 0.893013C20.8339 0.893013 24.6154 2.45902 27.4515 5.30229C30.2948 8.14556 31.8608 11.927 31.8536 15.9467C31.8536 24.2457 25.0988 30.9932 16.7999 30.9932H16.7927C14.2741 30.9932 11.7988 30.3582 9.59776 29.1601L1.62354 31.2529ZM9.97305 26.4323L10.4276 26.7066C12.3473 27.8467 14.5483 28.4456 16.7927 28.4529H16.7999C23.6917 28.4529 29.306 22.8456 29.306 15.9467C29.306 12.6054 28.0071 9.46627 25.6473 7.09915C23.2875 4.73214 20.1411 3.43322 16.7999 3.43322C9.90083 3.43322 4.28639 9.04044 4.28639 15.9394C4.28639 18.2993 4.94307 20.6013 6.19879 22.5931L6.49464 23.0694L5.23182 27.6807L9.97305 26.4323V26.4323Z" fill="black" fill-opacity="0.24"/>
</g>
<path d="M1.78615 30.9687L3.89566 23.2716C2.5986 21.0195 1.90718 18.4609 1.9144 15.8454C1.9144 7.64937 8.58522 0.985651 16.7813 0.985651C20.758 0.985651 24.4925 2.53211 27.2935 5.34014C30.1014 8.14817 31.648 11.8827 31.6409 15.8525C31.6409 24.0484 24.9701 30.7122 16.774 30.7122H16.767C14.2845 30.7112 11.8417 30.0888 9.66139 28.9019L1.78615 30.9688V30.9687ZM10.0319 26.2079L10.4809 26.4787C12.3768 27.6048 14.5504 28.1964 16.767 28.2035H16.7741C23.5803 28.2035 29.1251 22.6658 29.1251 15.8525C29.1251 12.5527 27.8422 9.45245 25.5117 7.11483C23.1812 4.77722 20.0738 3.49435 16.7741 3.49435C9.96072 3.49435 4.416 9.03197 4.416 15.8454C4.416 18.1759 5.06447 20.4494 6.30463 22.4163L6.59686 22.8867L5.34961 27.4408L10.0319 26.2079V26.2079Z" fill="white"/>
<path d="M13.061 9.62353C12.7829 9.00345 12.4907 8.98914 12.2271 8.98204C12.0133 8.97494 11.7639 8.97494 11.5144 8.97494C11.265 8.97494 10.8658 9.06758 10.5238 9.43813C10.1816 9.80881 9.22659 10.7068 9.22659 12.5385C9.22659 14.3629 10.5594 16.1304 10.7447 16.3798C10.9299 16.6293 13.3175 20.4992 17.0876 21.9887C20.2235 23.2289 20.865 22.9794 21.542 22.9152C22.2262 22.8511 23.7372 22.0172 24.0507 21.1478C24.3571 20.2783 24.3571 19.5371 24.2645 19.3803C24.1718 19.2234 23.9224 19.1309 23.5518 18.9455C23.1812 18.7602 21.3567 17.8622 21.0147 17.734C20.6725 17.6057 20.4231 17.5487 20.1808 17.9193C19.9313 18.2898 19.2187 19.1237 19.0048 19.3732C18.791 19.6226 18.5701 19.6511 18.1994 19.4658C17.8289 19.2806 16.6315 18.8885 15.2133 17.6199C14.1086 16.6364 13.3603 15.4176 13.1464 15.0471C12.9326 14.6765 13.1251 14.4768 13.3104 14.2917C13.4742 14.1277 13.6809 13.8569 13.8663 13.6431C14.0516 13.4293 14.1157 13.2725 14.2369 13.023C14.358 12.7736 14.301 12.5598 14.2084 12.3745C14.1157 12.1891 13.3888 10.3575 13.061 9.62353V9.62353Z" fill="white"/>
</g>
<defs>
<filter id="filter0_f" x="0.199414" y="-0.531112" width="33.0783" height="33.2082" filterUnits="userSpaceOnUse" color-interpolation-filters="sRGB">
<feFlood flood-opacity="0" result="BackgroundImageFix"/>
<feBlend mode="normal" in="SourceGraphic" in2="BackgroundImageFix" result="shape"/>
<feGaussianBlur stdDeviation="0.712062" result="effect1_foregroundBlur"/>
</filter>
<clipPath id="clip0">
<rect width="31.8755" height="32" fill="white" transform="translate(0.839478)"/>
</clipPath>
</defs>
</svg>
