<svg width="98" height="42" viewBox="0 0 98 42" fill="none" xmlns="http://www.w3.org/2000/svg">
<mask id="mask0" mask-type="alpha" maskUnits="userSpaceOnUse" x="1" y="10" width="95" height="22">
<path d="M1.48267 11.9652H4.47589L9.40278 25.8982L12.7403 17.2364L10.7007 11.9652H13.2436L18.5678 25.6068L23.2828 11.9652H26.0376L18.4884 31.8846L14.0118 20.468L9.1114 31.9111L1.48267 11.9652ZM28.8756 20.0707H31.3391V31.037H28.8756V20.0707ZM28.6902 16.1239C28.6902 15.7177 28.8403 15.391 29.1405 15.1438C29.4584 14.8789 29.8028 14.7465 30.1736 14.7465C30.5444 14.7465 30.88 14.8789 31.1802 15.1438C31.4804 15.391 31.6305 15.7177 31.6305 16.1239C31.6305 16.53 31.4804 16.8656 31.1802 17.1305C30.88 17.3777 30.5444 17.5013 30.1736 17.5013C29.8028 17.5013 29.4584 17.3777 29.1405 17.1305C28.8403 16.8656 28.6902 16.53 28.6902 16.1239ZM35.6271 31.037V10.5083H38.0906V24.3619L43.7592 19.8058L45.269 21.1302L41.2162 24.4148L45.7988 31.037H42.9115L39.521 25.7922L38.0906 26.9312V31.037H35.6271ZM51.0706 20.0707L51.2296 22.1898C51.6004 21.4128 52.1743 20.7947 52.9513 20.3356C53.7283 19.8764 54.629 19.6469 55.6532 19.6469C56.6774 19.6469 57.5162 19.9559 58.1696 20.574C58.8406 21.1744 59.1938 21.9602 59.2291 22.9315V31.037H56.7392V23.7791C56.7039 23.1964 56.5185 22.7196 56.183 22.3487C55.8651 21.9779 55.3618 21.7836 54.6731 21.766C53.7195 21.766 52.916 22.1545 52.2626 22.9315C51.6269 23.6908 51.309 24.6797 51.309 25.8982V31.037H48.8456V20.0707H51.0706ZM68.5726 31.3019C67.3365 31.3019 66.2593 31.0546 65.341 30.5602C64.4404 30.0481 63.7428 29.3505 63.2484 28.4676C62.7716 27.5846 62.5332 26.5869 62.5332 25.4744C62.5332 24.3972 62.7981 23.4171 63.3278 22.5341C63.8753 21.6335 64.6081 20.9272 65.5264 20.415C66.4623 19.8853 67.4954 19.6204 68.6256 19.6204C70.0736 19.6204 71.2744 20.0442 72.228 20.8918C73.1816 21.7395 73.835 22.905 74.1882 24.3883L65.4999 27.4345C65.8001 27.982 66.2239 28.4146 66.7714 28.7325C67.3188 29.0327 67.9369 29.1828 68.6256 29.1828C69.12 29.1828 69.588 29.0945 70.0295 28.9179C70.4709 28.7413 70.8948 28.5117 71.3009 28.2292L72.4399 30.0569C71.8748 30.4277 71.2479 30.728 70.5592 30.9575C69.8882 31.1871 69.226 31.3019 68.5726 31.3019ZM64.9701 25.3419C64.9525 25.5538 64.9613 25.7569 64.9966 25.9512L71.3804 23.5937C71.1332 23.0639 70.7712 22.5959 70.2944 22.1898C69.8352 21.7836 69.2172 21.5805 68.4402 21.5805C67.4336 21.5805 66.6036 21.9337 65.9502 22.6401C65.2968 23.3465 64.9701 24.2471 64.9701 25.3419ZM80.3476 31.2489C79.553 31.2489 78.7848 31.1165 78.0431 30.8516C77.3191 30.569 76.7187 30.154 76.2419 29.6066L77.3014 28.1762C77.7429 28.6177 78.2109 28.9532 78.7053 29.1828C79.1998 29.3947 79.6766 29.5006 80.1357 29.5006C80.6655 29.5006 81.1246 29.3947 81.5131 29.1828C81.9193 28.9709 82.1224 28.6089 82.1224 28.0967C82.1224 27.7082 81.9899 27.3992 81.725 27.1696C81.4778 26.9401 81.1511 26.7635 80.745 26.6399C80.3565 26.4986 79.9503 26.3573 79.5265 26.2161C77.6546 25.6156 76.7187 24.5473 76.7187 23.0109C76.7187 22.4458 76.86 21.9072 77.1425 21.3951C77.4427 20.883 77.8754 20.468 78.4404 20.1502C79.0232 19.8323 79.7384 19.6734 80.586 19.6734C81.3454 19.6734 82.0252 19.7705 82.6256 19.9647C83.2261 20.159 83.7911 20.468 84.3209 20.8918L83.3408 22.4017C83.023 22.0838 82.6433 21.8454 82.2018 21.6865C81.778 21.5099 81.3895 21.4128 81.0363 21.3951C80.5595 21.3951 80.1357 21.5099 79.7649 21.7395C79.4117 21.969 79.2351 22.2869 79.2351 22.6931C79.2174 23.0639 79.3322 23.3641 79.5795 23.5937C79.8267 23.8056 80.1445 23.9822 80.533 24.1235C80.9392 24.2647 81.3454 24.3972 81.7515 24.5208C82.5462 24.7857 83.2172 25.1477 83.7647 25.6068C84.3298 26.066 84.6123 26.737 84.6123 27.62C84.6123 28.6089 84.2591 29.4653 83.5527 30.1894C82.8464 30.8957 81.778 31.2489 80.3476 31.2489ZM91.1604 31.2489C90.3657 31.2489 89.5975 31.1165 88.8559 30.8516C88.1318 30.569 87.5314 30.154 87.0546 29.6066L88.1142 28.1762C88.5557 28.6177 89.0236 28.9532 89.5181 29.1828C90.0125 29.3947 90.4893 29.5006 90.9485 29.5006C91.4782 29.5006 91.9374 29.3947 92.3259 29.1828C92.732 28.9709 92.9351 28.6089 92.9351 28.0967C92.9351 27.7082 92.8027 27.3992 92.5378 27.1696C92.2906 26.9401 91.9639 26.7635 91.5577 26.6399C91.1692 26.4986 90.763 26.3573 90.3392 26.2161C88.4674 25.6156 87.5314 24.5473 87.5314 23.0109C87.5314 22.4458 87.6727 21.9072 87.9552 21.3951C88.2554 20.883 88.6881 20.468 89.2532 20.1502C89.8359 19.8323 90.5511 19.6734 91.3988 19.6734C92.1581 19.6734 92.838 19.7705 93.4384 19.9647C94.0388 20.159 94.6039 20.468 95.1337 20.8918L94.1536 22.4017C93.8357 22.0838 93.4561 21.8454 93.0146 21.6865C92.5908 21.5099 92.2023 21.4128 91.8491 21.3951C91.3723 21.3951 90.9485 21.5099 90.5776 21.7395C90.2244 21.969 90.0478 22.2869 90.0478 22.6931C90.0302 23.0639 90.145 23.3641 90.3922 23.5937C90.6394 23.8056 90.9573 23.9822 91.3458 24.1235C91.7519 24.2647 92.1581 24.3972 92.5643 24.5208C93.3589 24.7857 94.03 25.1477 94.5774 25.6068C95.1425 26.066 95.425 26.737 95.425 27.62C95.425 28.6089 95.0719 29.4653 94.3655 30.1894C93.6591 30.8957 92.5908 31.2489 91.1604 31.2489Z" fill="#C4C4C4"/>
</mask>
<g mask="url(#mask0)">
<path d="M0 0H97.125V40.8366L0 0Z" fill="#66BFFF"/>
<path d="M0 0L97.125 40.8366H0V0Z" fill="#151FFF"/>
</g>
</svg>
